<svg width="64" height="68" viewBox="0 0 64 68" fill="none" xmlns="http://www.w3.org/2000/svg">
<g clip-path="url(#clip0_475_144)">
<path d="M61.489 24.5236C59.349 19.2241 55.811 14.6092 51.256 11.1739C51.256 11.0044 50.383 3.09353 50.383 2.92401C50.321 2.34112 50.045 1.80227 49.609 1.41244C49.167 1.01794 48.596 0.801557 48.004 0.805006C46.907 0.522472 41.2058 5.35379 40.2627 5.83409C34.9742 4.4495 29.4203 4.4495 24.1318 5.83409C23.1465 5.32553 17.5161 0.550726 16.3901 0.805006C15.8037 0.804381 15.2376 1.01976 14.7991 1.41037C14.3605 1.80099 14.0802 2.33965 14.0112 2.92401C14.0112 3.09353 13.1385 10.9903 13.1385 11.1739C-10.5793 28.8464 2.04671 67.2568 32.2113 67.2568C54.113 67.6806 69.836 44.1597 61.489 24.5236Z" fill="#21BF48"/>
<path d="M40.6147 31.0643H36.0261V26.3319H40.6147V31.0643ZM27.5945 31.0643H23.0059V26.3319H27.5945V31.0643Z" fill="white"/>
<path d="M17.1786 43.8914L15.9258 40.9106C18.3664 39.3974 20.9861 38.1968 23.7238 37.3366C29.5533 35.6413 35.7426 35.6413 41.5721 37.3366C44.3133 38.1994 46.937 39.3999 49.384 40.9106L48.117 43.8914C45.778 42.5643 43.2742 41.5526 40.6712 40.8824C35.368 39.6344 29.8464 39.6586 24.5543 40.953C21.9803 41.6109 19.5014 42.5985 17.1786 43.8914Z" fill="white"/>
</g>
<defs>
<clipPath id="clip0_475_144">
<rect width="64" height="68" fill="white"/>
</clipPath>
</defs>
</svg>
